<?xml version="1.0" encoding="utf-8"?><!-- Generator: Adobe Illustrator 16.0.4, SVG Export Plug-In . SVG Version: 6.00 Build 0)  --><!DOCTYPE svg PUBLIC "-//W3C//DTD SVG 1.1//EN" "http://www.w3.org/Graphics/SVG/1.1/DTD/svg11.dtd">
<svg xmlns:xlink="http://www.w3.org/1999/xlink" enable-background="new 0 0 64 64" height="64px" id="Capa_1" version="1.1" viewBox="0 0 64 64"
	 width="64px" x="0px" xmlns="http://www.w3.org/2000/svg" y="0px" xml:space="preserve">
<g>
	<path d="M53.215,11.121c-0.752-0.752-2.679-1.459-3.431-0.707l-2.703,4.118l-3.386-3.385c-0.391-0.391-1.022-0.391-1.413,0
		c-0.392,0.391-0.392,1.023,0,1.414l3.385,3.385l-1.606,1.607c-0.029,0.023-0.064,0.033-0.092,0.06
		c-0.027,0.027-0.037,0.062-0.06,0.091L27.354,34.258c0.211,0.186,0.42,0.37,0.626,0.564l15.991-15.793l1.422-1.405l0.982-0.97
		l1.423-1.405l1.234-1.218c0.04-0.068,0.073-0.14,0.132-0.199l1.902-1.902c0.377-0.378,0.99-0.378,1.367,0
		c0.379,0.378,0.379,0.99,0,1.368L50.531,15.2c-0.109,0.109-0.24,0.177-0.377,0.224l-1.084,1.099l-1.402,1.425L46.7,18.93
		l-1.403,1.425l-15.791,16.03c0.186,0.207,0.366,0.415,0.544,0.626L46.001,21.06l3.386,3.386c0.195,0.195,0.451,0.293,0.707,0.293
		s0.512-0.098,0.707-0.293c0.391-0.391,0.391-1.023,0-1.414l-3.386-3.386l0.976-0.976l3.387,3.386
		c0.195,0.195,0.451,0.293,0.707,0.293s0.512-0.098,0.707-0.293c0.391-0.391,0.391-1.023,0-1.414l-3.368-3.368l4.1-2.722
		C54.675,13.8,53.968,11.873,53.215,11.121z"/>
	<path d="M46.23,18.46l-1.414,1.414L28.931,35.76c0.081,0.084,0.157,0.172,0.236,0.258l15.776-16.016l1.402-1.425l0.969-0.983
		l1.402-1.425l0.754-0.765c-0.041-0.017-0.074-0.051-0.113-0.074l-0.739,0.74l-1.414,1.414L46.23,18.46z"/>
	<path d="M48.15,15.603l-1.422,1.405l-0.982,0.97l-1.423,1.405L28.339,35.171c0.08,0.078,0.161,0.154,0.24,0.233l15.883-15.883
		l1.414-1.414l0.976-0.976l1.414-1.414l0.746-0.746c-0.027-0.049-0.054-0.096-0.072-0.148L48.15,15.603z"/>
	<path d="M28.78,37.12l-1.478,1.5l-9.469,9.612l1.67,1.67c0.322,0.322,0.322,0.846,0,1.168c-0.322,0.322-0.845,0.322-1.168,0
		l-1.812-1.812l-0.203-0.2l0.001-0.002l-0.344-0.344l-0.354-0.354l-0.317-0.317l-0.001,0.001l-0.2-0.202l-1.84-1.84
		c-0.322-0.321-0.322-0.845,0-1.168c0.322-0.322,0.845-0.322,1.168,0l1.695,1.694l9.59-9.471l1.538-1.52
		c-0.204-0.194-0.413-0.376-0.621-0.561c-2.187-1.931-4.571-3.317-6.418-3.317c-0.124,0-0.245,0.006-0.364,0.019
		c-0.9,0.096-1.972,0.495-3.104,1.094c0.03,0.037,0.066,0.069,0.092,0.111c0.491,0.777,0.225,1.9-0.618,2.612
		c-2.072,1.749-3.006,2.682-4.757,4.757c-0.458,0.542-1.105,0.866-1.732,0.866c-0.319,0-0.624-0.086-0.881-0.248
		c-0.185-0.119-0.34-0.272-0.457-0.455c-0.911,1.449-1.442,2.864-1.328,4.048c0.435,4.499,8.265,12.746,12.785,12.785
		c0.01,0,0.021,0,0.031,0c4.527,0,12.753-8.275,12.753-12.785c0-1.843-1.386-4.384-3.322-6.719
		C29.14,37.534,28.963,37.327,28.78,37.12z"/>
	<path d="M26.445,38.245l-9.3,9.3l0.335,0.335l9.291-9.432l1.673-1.699c-0.081-0.088-0.157-0.179-0.24-0.265L26.445,38.245z"/>
	<path d="M25.897,37.582l-9.416,9.299l0.31,0.311l9.3-9.301l1.762-1.762c-0.08-0.081-0.162-0.16-0.243-0.24L25.897,37.582z"/>
	<path d="M9.388,40.025c0.101,0.062,0.22,0.093,0.348,0.093c0.321,0,0.696-0.19,0.967-0.511c1.779-2.108,2.768-3.098,4.876-4.877
		c0.449-0.379,0.641-0.961,0.418-1.313c-0.038-0.062-0.096-0.099-0.154-0.136c-0.096-0.064-0.207-0.107-0.339-0.107
		c-0.246,0-0.534,0.11-0.794,0.329c-2.263,1.91-3.326,2.972-5.236,5.236c-0.141,0.168-0.221,0.344-0.271,0.516
		C9.108,39.578,9.158,39.879,9.388,40.025z"/>
</g>
</svg>
