<?xml version="1.0" encoding="UTF-8"?>
<svg width="386px" height="108px" viewBox="0 0 386 108" version="1.1" xmlns="http://www.w3.org/2000/svg" xmlns:xlink="http://www.w3.org/1999/xlink">
    <!-- Generator: Sketch 43.1 (39012) - http://www.bohemiancoding.com/sketch -->
    <title>Artboard</title>
    <desc>Created with Sketch.</desc>
    <defs>
        <polygon id="path-1" points="-104.887 595.892 490.393 595.892 490.393 -245.998 -104.887 -245.998"></polygon>
    </defs>
    <g id="Page-1" stroke="none" stroke-width="1" fill="none" fill-rule="evenodd">
        <mask id="mask-2" fill="white">
            <use xlink:href="#path-1"></use>
        </mask>
        <g id="Clip-66"></g>
        <g id="Artboard" mask="url(#mask-2)">
            <g id="Group-2" transform="translate(123.000000, 5.000000)" fill="#DB4637">
                <path d="M216.7148,40.8117 C216.6988,41.9637 216.9038,42.8857 217.2588,43.7907 C218.0068,45.6997 219.2288,47.2807 220.6388,48.7317 C220.8568,48.9557 221.0268,49.3017 221.4968,49.2257 C221.8278,47.2377 222.5288,45.2857 222.1568,43.1327 C220.6748,42.3907 219.1878,41.6307 217.6828,40.9087 C217.4438,40.7937 217.1228,40.8467 216.7148,40.8117 Z M227.7068,55.6957 C227.8728,55.2647 227.7788,54.9147 227.7178,54.5527 C227.3988,52.6997 227.0938,50.8447 226.7848,48.9897 C226.6208,47.9997 226.4598,47.0097 226.2988,46.0197 C226.2618,45.7977 226.1568,45.6217 225.9268,45.5747 C225.6618,45.5207 225.4278,45.5847 225.2798,45.8357 C225.1958,45.9797 225.1178,46.1277 225.0428,46.2767 C224.2358,47.8837 223.4298,49.4907 222.6278,51.1007 C222.5028,51.3517 222.4128,51.6197 222.2808,51.9417 C223.9658,53.1417 225.5948,54.3057 227.2288,55.4637 C227.3548,55.5537 227.5118,55.6027 227.7068,55.6957 Z M226.8918,8.3267 C226.3218,8.0857 225.9868,8.3697 225.6508,8.6127 C223.9708,9.8227 222.5268,11.2657 221.3948,13.0067 C219.1528,16.4537 218.3208,20.2897 218.2638,24.3407 C218.2588,24.7517 218.4008,25.0547 218.6898,25.3357 C219.4088,26.0357 220.0938,26.7747 220.8268,27.4587 C221.2618,27.8647 221.4168,28.3137 221.4058,28.8997 C221.3558,31.4707 221.0768,33.9987 220.0378,36.3817 C219.8028,36.9247 219.8938,37.3687 220.2238,37.7767 C220.4848,38.0977 220.7998,38.3857 221.1288,38.6357 C222.2748,39.5027 223.5768,40.0737 224.9108,40.5777 C225.0178,40.6177 225.1528,40.5827 225.3588,40.5827 C225.3728,40.1497 225.3988,39.7407 225.3998,39.3307 C225.4038,37.5727 225.3828,35.8137 225.4068,34.0557 C225.4278,32.7177 225.4748,31.3787 225.5618,30.0427 C225.7928,26.4517 226.0628,22.8627 226.2988,19.2717 C226.5098,16.0557 226.6968,12.8387 226.8888,9.6217 C226.9128,9.2107 226.8918,8.7967 226.8918,8.3267 Z M231.6398,63.7207 C230.3108,63.8317 229.0928,63.8387 227.9118,63.2447 C226.6598,62.6137 225.5778,61.7697 224.5798,60.8047 C222.5808,58.8717 220.9378,56.6507 219.3708,54.3677 C219.1108,53.9887 218.8328,53.6237 218.5598,53.2547 C218.5418,53.2307 218.4888,53.2327 218.4468,53.2217 C218.2188,53.2757 218.2618,53.4807 218.2678,53.6247 C218.3768,56.4037 217.9548,59.1377 217.5868,61.8777 C217.2968,64.0347 217.0668,66.2007 216.8008,68.3617 C216.7658,68.6447 216.6818,68.9227 216.6128,69.2307 C215.5768,69.4127 214.5768,69.3137 213.5808,69.3037 C213.4628,69.3027 213.3338,69.2487 213.2298,69.1867 C212.0088,68.4627 210.7888,67.7317 209.5778,67.0077 C209.5778,66.4737 209.5508,66.0147 209.5818,65.5587 C209.7728,62.8427 209.9488,60.1267 210.1818,57.4137 C210.4358,54.4517 210.7158,51.4907 211.0378,48.5347 C211.3898,45.3307 211.8568,42.1407 212.4708,38.9757 C212.6508,38.0467 212.6798,37.1687 212.3658,36.2697 C211.8158,34.6907 211.8958,33.0467 211.9658,31.4157 C211.9868,30.9257 212.1778,30.4357 212.3348,29.9617 C213.1288,27.5787 213.9398,25.2017 214.7398,22.8207 C214.8468,22.5057 214.9318,22.1827 215.0258,21.8677 C214.9658,21.7357 214.9438,21.5887 214.8608,21.5167 C214.2208,20.9727 214.2108,20.3467 214.4728,19.5947 C215.6838,16.1137 216.8958,12.6337 218.3498,9.2457 C218.8608,8.0557 219.4698,6.9057 220.0708,5.7577 C220.2808,5.3547 220.5778,4.9887 220.8828,4.6477 C221.2228,4.2657 221.6568,4.1927 222.1528,4.4287 C222.4018,5.3247 222.1148,6.2617 222.3658,7.2517 C222.7048,7.0717 222.9968,6.9367 223.2708,6.7707 C224.4868,6.0287 225.7098,5.3007 227.0528,4.8017 C227.2088,4.7437 227.3688,4.6917 227.5238,4.6267 C228.6358,4.1567 229.6318,4.1687 230.3948,5.2747 C230.5098,5.4407 230.7158,5.5427 230.9008,5.6917 C230.8518,7.0867 230.3338,8.3517 230.2268,9.6957 C230.2468,9.7547 230.2518,9.8607 230.3068,9.9067 C230.8868,10.4007 230.9328,10.9887 230.7858,11.7117 C230.2838,14.2137 229.8448,16.7277 229.3748,19.2667 C229.6118,19.5577 229.8458,19.8457 230.1328,20.1987 C229.9438,21.1817 229.7888,22.2147 229.5408,23.2257 C229.2958,24.2247 229.3118,25.2247 229.4158,26.2217 C229.7368,29.2617 230.0768,32.2997 230.4478,35.3337 C230.9018,39.0377 231.1238,42.7587 231.3488,46.4797 C231.6738,51.8777 231.7438,57.2827 231.7188,62.6897 C231.7178,63.0127 231.6698,63.3347 231.6398,63.7207 Z" id="Fill-1"></path>
                <path d="M236.6289,46.6159 C236.8939,47.4539 237.2609,48.2509 237.8299,48.9199 C238.1749,49.3249 238.6129,49.6729 239.0649,49.9569 C239.6129,50.3019 240.2559,50.3949 240.8679,50.1479 C241.6809,49.8219 242.4659,49.4269 243.1339,48.8409 C243.3869,48.6189 243.6109,48.3779 243.5679,47.9429 C243.4219,47.8529 243.2549,47.7349 243.0739,47.6419 C241.9599,47.0729 240.8439,46.5089 239.7269,45.9449 C239.5409,45.8509 239.3549,45.7559 239.1619,45.6769 C238.6649,45.4719 238.2119,45.4759 237.7719,45.8659 C237.4719,46.1319 237.0989,46.3139 236.6289,46.6159 M253.3289,47.0889 C255.0259,47.3359 256.4279,48.1379 257.7249,49.1639 C259.5099,50.5769 261.0369,52.2419 262.4679,53.9989 C262.9119,54.5449 262.8819,54.9099 262.3629,55.4249 C260.8799,56.8919 261.4849,56.6309 259.4439,56.6799 C258.8999,56.6929 258.4859,56.4809 258.0649,56.1829 C255.9789,54.7059 253.8679,53.2649 251.7979,51.7669 C251.1129,51.2709 250.4119,51.0219 249.5799,51.1219 C249.1219,51.1769 248.6599,51.2039 248.2079,51.2849 C245.8599,51.7069 243.5159,52.1519 241.1679,52.5699 C239.6649,52.8369 238.1619,52.7829 236.6759,52.4509 C236.2709,52.3599 235.8629,52.2209 235.4999,52.0249 C234.6299,51.5529 234.1109,50.8419 234.1269,49.8019 C234.1409,48.8389 234.1339,47.8739 234.1279,46.9109 C234.1249,46.5649 234.1969,46.2609 234.4179,45.9759 C235.1089,45.0829 235.7809,44.1749 236.5009,43.2189 C240.1929,43.6239 243.8539,44.2889 247.5779,44.7179 C248.2919,43.7129 248.6989,42.6089 249.2299,41.5759 C249.7399,40.5849 250.2989,39.6089 250.7019,38.4499 C250.2349,38.4219 249.8729,38.3959 249.5109,38.3799 C248.0029,38.3139 246.4979,38.2339 245.0269,37.8479 C244.4519,37.6969 243.9159,37.4799 243.4499,37.1029 C242.8949,36.6549 242.5649,35.8699 243.4459,35.2069 C243.9789,34.8059 244.5319,34.4039 245.1349,34.1289 C247.0769,33.2449 249.0389,32.4019 251.0079,31.5789 C251.9689,31.1769 252.9629,30.8529 253.9439,30.4929 C255.2149,31.1889 256.2989,32.0309 257.0559,33.2219 C257.3659,33.7099 257.5989,34.2609 257.7829,34.8109 C258.0009,35.4609 257.9579,36.1029 257.6469,36.7579 C257.0889,37.9289 256.6079,39.1369 256.1019,40.3319 C255.9399,40.7159 255.7989,41.1079 255.6359,41.5259 C255.8359,41.7979 256.0319,42.0629 256.2399,42.3459 C256.1969,42.4569 256.1749,42.5869 256.1039,42.6769 C255.3009,43.6979 254.4929,44.7149 253.6789,45.7259 C253.3829,46.0929 253.0909,46.4509 253.3289,47.0889" id="Fill-3"></path>
                <path d="M255.4834,20.2101 C255.0974,20.6041 254.6914,21.0251 254.2764,21.4381 C253.9204,21.7911 253.5534,22.1331 253.1904,22.4811 C251.3824,22.5721 249.5874,22.4531 247.7374,22.5541 C247.6894,22.9071 247.6254,23.1861 247.6204,23.4651 C247.6044,24.2611 247.6014,25.0571 247.6164,25.8531 C247.6244,26.2991 247.4974,26.6551 247.1664,26.9721 C246.4094,27.6951 245.6784,28.4461 244.9394,29.1881 C244.6984,29.4301 244.4484,29.6411 244.0774,29.6361 C242.9094,29.6201 241.7384,29.7101 240.5214,29.5691 C240.3974,29.2501 240.2674,28.9491 240.1624,28.6401 C239.8144,27.6091 239.4884,26.5701 239.1234,25.5451 C238.9754,25.1291 238.9604,24.7651 239.1254,24.3381 C240.6964,20.2701 242.4124,16.2711 244.7784,12.5871 C245.7544,11.0691 246.8494,9.6431 248.2284,8.4521 C249.6144,7.2551 251.1644,6.5811 253.0374,6.6421 C254.8074,6.7001 254.8084,6.6531 256.0724,7.9311 C256.5434,8.4081 257.0024,8.8991 257.4954,9.3521 C258.0874,9.8981 258.1284,10.4731 257.5124,11.0651 C256.2744,12.2551 255.0734,13.4841 253.8614,14.7021 C253.1864,15.3801 252.5184,16.0651 251.7524,16.8441 C252.1294,16.9801 252.3804,17.0811 252.6384,17.1621 C253.1564,17.3261 253.6924,17.4431 254.1934,17.6461 C255.1434,18.0301 255.6824,18.7061 255.5424,19.7921 C255.5264,19.9161 255.5064,20.0401 255.4834,20.2101" id="Fill-5"></path>
                <path d="M27.7046,33.5109 C29.3706,32.6019 30.7646,31.4529 32.3226,30.5679 C32.4566,30.6429 32.5866,30.6799 32.6686,30.7639 C33.3986,31.5059 33.3876,31.8679 32.5736,32.4639 C30.7076,33.8289 28.9816,35.3439 27.4406,37.0719 C25.3896,39.3729 23.7616,41.9459 22.4326,44.7179 C22.3246,44.9439 22.2136,45.1739 22.1446,45.4139 C21.8766,46.3419 22.4326,47.1149 23.3926,47.1399 C24.4336,47.1679 25.3746,46.8729 26.1996,46.2219 C26.9306,45.6449 27.5286,44.9499 28.0316,44.1689 C28.9676,42.7149 29.6466,41.1389 30.1716,39.5009 C30.6316,38.0679 31.0116,36.6079 31.4306,35.1619 C31.4866,34.9659 31.5686,34.7779 31.6376,34.5899 C32.3346,34.3869 33.0086,34.4539 33.6686,34.5009 C33.9276,34.5189 34.2136,34.7059 34.4136,34.8939 C35.0526,35.4949 35.6576,36.1319 36.3286,36.8089 C36.0866,37.8159 35.8486,38.8269 35.6006,39.8359 C35.4106,40.6079 35.1996,41.3759 35.0156,42.1489 C34.9496,42.4269 34.9356,42.7169 34.8896,43.0649 C36.5736,43.6599 37.4726,45.0239 38.3136,46.4319 C38.7396,47.1449 39.1026,47.8949 39.5016,48.6419 C38.7496,49.5859 37.9156,50.3359 37.0636,51.1489 L32.4056,51.1489 C32.1326,51.6209 31.8816,52.0519 31.6326,52.4839 C30.2476,54.8849 28.7176,57.1819 26.8066,59.2049 C25.1826,60.9259 23.3706,62.3939 21.2036,63.3889 C19.7806,64.0419 18.2926,64.4419 16.7296,64.5459 C16.4466,64.5639 16.1606,64.5289 15.7926,64.5159 C15.7696,64.0489 15.7486,63.6479 15.7256,63.1969 C15.9676,63.1129 16.1496,63.0239 16.3416,62.9879 C17.6916,62.7349 18.7436,61.9889 19.5436,60.9239 C20.1686,60.0909 20.7496,59.2049 21.2146,58.2749 C22.3206,56.0589 23.0256,53.6959 23.6226,51.2289 C23.3596,51.0649 23.1286,50.9059 22.8846,50.7709 C22.2996,50.4459 21.6886,50.1649 21.1256,49.8089 C20.0676,49.1409 19.2516,48.2679 18.9656,46.9949 C18.9396,46.8799 18.8506,46.7799 18.7536,46.6049 C18.5076,46.7869 18.2686,46.9329 18.0656,47.1179 C15.4546,49.4889 12.4126,50.9979 8.9446,51.5989 C7.1676,51.9069 5.3636,51.9679 3.5586,51.9219 C3.1986,51.9129 2.9126,51.8029 2.6636,51.5509 C2.1056,50.9829 1.5406,50.4229 0.9816,49.8559 C0.8946,49.7679 0.8126,49.6689 0.7486,49.5629 C0.5436,49.2189 0.6326,48.8059 0.9746,48.5759 C1.2166,48.4129 1.4776,48.2759 1.7346,48.1369 C8.0036,44.7629 14.2726,41.3899 20.5406,38.0159 C20.7616,37.8969 20.9756,37.7659 21.2666,37.5989 C21.7626,36.1959 22.2836,34.7429 22.7896,33.2839 C24.4756,28.4199 26.1436,23.5489 27.8466,18.6909 C28.2536,17.5299 28.4666,16.3719 28.4436,15.1339 C28.3926,12.3699 28.4436,9.6029 28.4156,6.8379 C28.4096,6.1629 28.5256,5.6009 29.0926,5.1849 C29.2256,5.0869 29.3276,4.9469 29.4476,4.8299 C30.1556,4.1439 31.0396,4.0629 31.7986,4.6919 C32.2106,5.0339 32.5676,5.4609 32.8846,5.8969 C33.7016,7.0219 34.2676,8.2889 34.7906,9.5679 C35.2966,10.8079 35.7216,12.0799 36.2056,13.3289 C36.3826,13.7859 36.3546,14.2139 36.2296,14.6739 C35.8226,16.1749 35.2466,17.6109 34.6136,19.0259 C32.6966,23.3089 30.5036,27.4539 28.2986,31.5939 C28.1016,31.9629 27.8686,32.3179 27.7186,32.7059 C27.6396,32.9109 27.7046,33.1729 27.7046,33.5109" id="Fill-7"></path>
                <path d="M50.5708,61.4509 C50.5948,61.0129 50.6288,60.6829 50.6288,60.3519 C50.6318,56.2049 50.6338,52.0579 50.6288,47.9109 C50.6278,46.6909 50.2038,44.4979 49.7428,43.3099 C49.4828,43.3789 49.2048,43.4289 48.9458,43.5279 C48.0858,43.8559 47.2308,44.1969 46.3778,44.5439 C46.0938,44.6599 45.8148,44.7119 45.5278,44.5849 C43.8448,43.8439 42.1628,43.1009 40.4808,42.3569 C40.4448,42.3409 40.4188,42.3029 40.3468,42.2359 L40.3468,40.8709 C40.6678,40.7249 40.9588,40.5669 41.2668,40.4559 C47.2568,38.3189 53.2498,36.1869 59.2408,34.0519 C59.6348,33.9109 60.0298,33.7699 60.4138,33.6039 C61.8598,32.9789 63.3598,32.6949 64.9388,32.8289 C65.3928,32.8679 65.8538,32.8349 66.3288,32.8349 C66.6918,33.6519 66.5498,34.4479 66.4818,35.2199 C66.4598,35.4599 66.1948,35.7459 65.9648,35.8859 C65.4308,36.2109 64.8668,36.4969 64.2878,36.7319 C62.3458,37.5219 60.3328,38.0929 58.3088,38.6269 C58.1468,38.6699 57.9878,38.7259 57.8228,38.7549 C55.8448,39.0979 54.4568,40.3519 53.1888,41.7769 C52.9408,42.0549 52.7438,42.3859 52.5708,42.7179 C52.2708,43.2949 52.1948,43.8869 52.4328,44.5319 C52.7808,45.4739 53.0638,46.4389 53.3748,47.3939 C53.4788,47.7119 53.5768,48.0319 53.6878,48.3469 C53.9168,48.9979 53.8608,49.5779 53.3048,50.0539 C53.2138,50.1329 53.1598,50.2529 53.0548,50.4009 C53.2638,51.4769 53.4738,52.5839 53.6948,53.6879 C54.2128,56.2719 54.7298,58.8569 55.2618,61.4379 C55.3778,61.9999 55.3328,62.5149 55.0308,63.0059 C54.6798,63.5759 54.3628,64.1689 53.9768,64.7139 C53.7128,65.0849 53.3808,65.4169 53.0378,65.7199 C52.4528,66.2359 51.7878,66.3569 51.0568,66.0179 C50.1448,65.5959 49.2198,65.2029 48.3128,64.7729 C46.1158,63.7339 43.9578,62.6199 41.9788,61.1969 C41.1338,60.5899 40.2788,59.9829 39.6398,59.0559 C39.8458,58.8299 40.0148,58.5889 40.2358,58.4159 C40.5298,58.1879 40.9048,58.1999 41.1498,58.4599 C42.3348,59.7229 43.9448,60.2679 45.4308,61.0229 C45.7288,61.1739 46.0378,61.3059 46.3488,61.4299 C47.0078,61.6899 47.6708,61.9389 48.3328,62.1929 C49.0448,61.9569 49.7578,61.7209 50.5708,61.4509" id="Fill-9"></path>
                <path d="M67.2798,14.5729 C66.8918,16.1399 66.1398,17.3959 65.3228,18.6129 C64.2218,20.2529 62.9108,21.7219 61.5198,23.1179 C59.3278,25.3179 56.9368,27.2869 54.4808,29.1789 C53.8988,29.6279 53.8888,29.6149 53.1148,29.4959 C52.8668,28.6719 53.0848,27.9909 53.6268,27.3109 C56.1328,24.1689 58.6038,20.9979 61.0858,17.8359 C61.2918,17.5739 61.5228,17.3169 61.6618,17.0199 C61.7538,16.8229 61.7038,16.5599 61.7158,16.3559 C61.2618,16.1729 60.9748,16.3979 60.7078,16.5709 C59.9348,17.0709 59.1408,17.5509 58.4348,18.1359 C56.3388,19.8709 54.2678,21.6369 52.2188,23.4269 C51.6608,23.9139 51.0978,24.1939 50.3448,24.3009 C48.0258,24.6299 45.7208,25.0639 43.4098,25.4529 C42.9988,25.5219 42.5838,25.5709 42.1768,25.6279 C41.8578,25.3239 41.8948,24.9879 42.1328,24.7259 C42.5258,24.2939 42.9548,23.8899 43.4038,23.5159 C44.9538,22.2279 46.6438,21.1389 48.3538,20.0819 C52.7728,17.3519 57.3598,14.9239 61.9548,12.5099 C62.6418,12.1489 63.3328,12.2659 64.0308,12.1999 C64.6688,12.1399 65.1568,12.3419 65.5838,12.8199 C66.1108,13.4109 66.6838,13.9609 67.2798,14.5729" id="Fill-11"></path>
                <path d="M151.373,64.4596 L151.373,63.1756 C151.514,63.1196 151.655,63.0326 151.809,63.0056 C153.301,62.7426 154.392,61.8766 155.29,60.7126 C155.985,59.8116 156.535,58.8286 157.006,57.7956 C157.962,55.6946 158.63,53.5036 159.185,51.2126 C158.91,51.0486 158.672,50.8966 158.425,50.7606 C157.839,50.4386 157.231,50.1526 156.665,49.7996 C155.6,49.1336 154.83,48.2206 154.484,46.9866 C154.451,46.8706 154.382,46.7646 154.295,46.5816 C153.981,46.8376 153.686,47.0606 153.41,47.3056 C150.806,49.6186 147.771,51.0586 144.349,51.6296 C142.613,51.9196 140.849,51.9766 139.085,51.9196 C138.775,51.9096 138.515,51.8356 138.293,51.6126 C137.704,51.0166 137.091,50.4426 136.523,49.8276 C136.012,49.2736 136.1,48.8006 136.788,48.4206 C138.364,47.5506 139.955,46.7056 141.54,45.8526 C146.371,43.2536 151.199,40.6486 156.039,38.0666 C156.594,37.7706 156.923,37.3936 157.129,36.7906 C159.159,30.8496 161.186,24.9076 163.292,18.9936 C163.782,17.6196 164.001,16.2676 163.978,14.8256 C163.936,12.1866 163.986,9.5456 163.953,6.9066 C163.944,6.1856 164.079,5.5926 164.678,5.1496 C164.811,5.0506 164.913,4.9116 165.035,4.7966 C165.701,4.1646 166.577,4.0736 167.295,4.6446 C167.714,4.9786 168.103,5.3866 168.398,5.8326 C168.882,6.5636 169.351,7.3216 169.697,8.1236 C170.378,9.6976 170.958,11.3136 171.607,12.9026 C171.908,13.6426 171.921,14.3746 171.657,15.1076 C171.232,16.2886 170.822,17.4766 170.327,18.6286 C168.658,22.5186 166.678,26.2566 164.705,29.9976 C164.295,30.7756 163.868,31.5446 163.454,32.3196 C163.248,32.7046 163.254,32.7076 163.325,33.4336 C164.207,33.0946 164.892,32.4656 165.663,31.9896 C166.409,31.5306 167.13,31.0296 167.873,30.5406 C168.046,30.6586 168.201,30.7326 168.315,30.8476 C168.916,31.4576 168.9,31.8966 168.227,32.3896 C166.635,33.5556 165.13,34.8196 163.762,36.2446 C161.36,38.7476 159.466,41.5946 157.998,44.7296 C157.875,44.9936 157.741,45.2626 157.683,45.5446 C157.494,46.4286 158.059,47.1236 158.962,47.1416 C160.003,47.1626 160.942,46.8646 161.768,46.2156 C162.706,45.4776 163.393,44.5356 163.98,43.5116 C165.116,41.5346 165.832,39.3926 166.458,37.2166 C166.7,36.3756 166.901,35.5226 167.131,34.6346 C167.871,34.3546 168.622,34.4766 169.359,34.5156 C169.543,34.5256 169.748,34.6716 169.891,34.8096 C170.548,35.4496 171.187,36.1076 171.841,36.7676 C171.52,38.9226 170.761,40.9306 170.414,43.0776 C171.964,43.5696 172.83,44.7526 173.613,46.0006 C174.144,46.8466 174.66,47.7106 175.022,48.6916 C174.394,49.4946 173.644,50.1596 172.938,50.8636 C172.712,51.0876 172.425,51.1206 172.124,51.1196 C171.16,51.1156 170.196,51.1156 169.233,51.1216 C168.818,51.1246 168.404,51.1476 167.963,51.1626 C167.776,51.4776 167.602,51.7586 167.441,52.0456 C166.184,54.2756 164.803,56.4216 163.123,58.3626 C161.295,60.4736 159.226,62.2776 156.651,63.4426 C155.419,64.0006 154.127,64.3406 152.791,64.5096 C152.345,64.5666 151.882,64.6276 151.373,64.4596" id="Fill-13"></path>
                <path d="M175.1133,59.1144 C175.4293,58.7944 175.6053,58.5604 175.8333,58.3974 C176.1363,58.1814 176.5063,58.2054 176.7413,58.4844 C177.4133,59.2784 178.3173,59.7274 179.2173,60.1644 C180.5343,60.8034 181.8853,61.3744 183.2153,61.9884 C183.6153,62.1744 183.9873,62.2314 184.4133,62.0494 C184.9503,61.8194 185.5123,61.6494 186.1163,61.4344 C186.1433,61.1004 186.1923,60.7724 186.1923,60.4454 C186.1983,56.2144 186.1983,51.9834 186.1943,47.7534 C186.1933,46.7014 185.6993,44.2354 185.3023,43.2804 C185.0443,43.3604 184.7693,43.4264 184.5093,43.5274 C183.6503,43.8594 182.7953,44.2004 181.9413,44.5454 C181.6583,44.6604 181.3803,44.7114 181.0913,44.5854 C179.4403,43.8704 177.7893,43.1554 176.1413,42.4344 C176.0713,42.4034 176.0253,42.3174 175.9243,42.2104 L175.9243,40.8544 C176.2833,40.6974 176.6153,40.5294 176.9643,40.4054 C183.6623,38.0124 190.3653,35.6304 197.0613,33.2274 C197.8223,32.9534 198.5803,32.7994 199.3883,32.8304 C200.2173,32.8624 201.0493,32.8524 201.9393,32.8624 C202.1593,33.7084 202.1093,34.4944 202.0083,35.2694 C201.9793,35.4814 201.7673,35.7264 201.5723,35.8474 C201.0763,36.1534 200.5583,36.4364 200.0203,36.6604 C198.0473,37.4844 195.9893,38.0554 193.9293,38.6164 C193.7273,38.6714 193.5283,38.7414 193.3233,38.7764 C191.3853,39.1074 190.0393,40.3484 188.7913,41.7314 C188.5433,42.0074 188.3493,42.3404 188.1583,42.6634 C187.7993,43.2734 187.7343,43.9014 187.9883,44.5884 C188.3803,45.6474 188.7163,46.7274 189.0753,47.7984 C189.0893,47.8374 189.0983,47.8784 189.1143,47.9174 C189.4763,48.7944 189.6273,49.6344 188.6463,50.2134 C188.7293,51.4194 189.0333,52.5084 189.2523,53.6104 C189.7723,56.2374 190.3093,58.8604 190.8423,61.4844 C190.9463,61.9944 190.9203,62.4734 190.6303,62.9324 C190.2953,63.4624 190.0123,64.0264 189.6643,64.5474 C189.4333,64.8924 189.1413,65.2004 188.8493,65.4994 C188.1643,66.2004 187.3993,66.3864 186.4573,65.9634 C184.0133,64.8644 181.5773,63.7484 179.2933,62.3384 C178.3333,61.7464 177.4153,61.0814 176.5113,60.4064 C176.0493,60.0614 175.6563,59.6214 175.1133,59.1144" id="Fill-15"></path>
                <path d="M188.6924,29.5163 C188.4854,28.7173 188.6114,28.0293 189.1714,27.3313 C191.6874,24.1933 194.1554,21.0173 196.6354,17.8513 C196.8684,17.5563 197.1014,17.2523 197.2634,16.9193 C197.3374,16.7693 197.2814,16.5153 197.1994,16.3503 C197.1664,16.2853 196.8834,16.2833 196.7524,16.3393 C196.4454,16.4683 196.1384,16.6193 195.8714,16.8143 C194.7194,17.6523 193.5464,18.4643 192.4504,19.3703 C190.8024,20.7303 189.2034,22.1483 187.6084,23.5713 C187.1494,23.9803 186.6714,24.1893 186.0574,24.2803 C183.7374,24.6233 181.4264,25.0343 179.1134,25.4183 C178.6264,25.4993 178.1374,25.5733 177.6824,25.6463 C177.3934,25.2533 177.4564,24.9353 177.7144,24.6803 C178.1924,24.2103 178.6744,23.7413 179.1974,23.3243 C181.2974,21.6473 183.5644,20.2093 185.9014,18.8943 C189.6234,16.7993 193.3884,14.7813 197.1254,12.7103 C197.8094,12.3313 198.5044,12.1433 199.2804,12.2033 C199.6544,12.2313 200.0324,12.2083 200.4914,12.2083 C201.2614,12.9813 202.0534,13.7753 202.8414,14.5653 C202.5524,15.6963 202.0734,16.6643 201.5184,17.6033 C200.2934,19.6763 198.7204,21.4713 197.0304,23.1653 C194.8664,25.3333 192.5114,27.2863 190.0774,29.1423 C189.6774,29.4463 189.2884,29.7943 188.6924,29.5163" id="Fill-17"></path>
                <path d="M67.4741,62.173 C67.4701,61.707 67.8141,61.557 68.0471,61.336 C71.7891,57.792 75.5161,54.231 79.2911,50.722 C81.0771,49.062 82.6991,47.261 84.2911,45.424 C88.4101,40.672 92.3831,35.805 96.0701,30.708 C99.3641,26.154 102.4301,21.456 104.9071,16.396 C106.0871,13.986 107.1151,11.514 107.8351,8.923 C107.9921,8.358 108.1521,7.791 108.2451,7.215 C108.3081,6.811 108.3141,6.382 108.2561,5.977 C108.0981,4.902 107.8841,3.834 107.7081,2.761 C107.6611,2.475 107.6691,2.181 107.6571,1.984 C107.9871,1.456 108.2671,1.008 108.5941,0.487 C109.7971,1.447 111.0341,2.435 112.2921,3.44 C112.1661,4.604 111.8341,5.684 111.5511,6.768 C110.2161,11.896 108.2511,16.783 105.8541,21.502 C102.1561,28.786 97.5201,35.446 92.3291,41.73 C90.9411,43.409 89.5191,45.064 88.0571,46.677 C85.1811,49.848 82.0271,52.733 78.7811,55.518 C76.9991,57.047 75.1531,58.495 73.1771,59.769 C71.6221,60.772 70.0141,61.666 68.1941,62.1 C67.9641,62.155 67.7211,62.15 67.4741,62.173" id="Fill-19"></path>
                <path d="M130.792,57.4362 C129.838,57.5172 128.886,57.6182 127.931,57.6762 C126.091,57.7862 124.25,57.8672 122.41,57.9702 C121.156,58.0402 119.903,58.1282 118.648,58.2042 C118.355,58.2222 118.059,58.2002 117.77,58.2412 C117.186,58.3232 116.797,58.0352 116.515,57.5852 C116.137,56.9822 115.763,56.3742 115.44,55.7402 C114.283,53.4602 113.314,51.0932 112.465,48.6862 C110.738,43.7922 109.083,38.8722 107.404,33.9612 C107.299,33.6532 107.245,33.3292 107.15,32.9482 C107.669,33.1432 107.807,33.5662 108.035,33.8922 C110.363,37.2252 112.791,40.4822 115.412,43.5922 C118.468,47.2202 121.733,50.6372 125.465,53.5882 C126.946,54.7602 128.498,55.8252 130.128,56.7772 C130.373,56.9202 130.606,57.0802 130.846,57.2312 C130.828,57.3002 130.81,57.3682 130.792,57.4362" id="Fill-21"></path>
            </g>
            <polygon id="Fill-23" fill="#DB4637" points="142.9546 91.2502 140.6126 99.9912 135.1426 99.9912 140.1066 81.4642 145.5766 81.4642 143.3586 89.7432 149.5616 89.7432 151.7796 81.4642 157.2496 81.4642 152.2856 99.9912 146.8156 99.9912 149.1576 91.2502"></polygon>
            <polygon id="Fill-25" fill="#DB4637" points="250.6152 100.1271 244.0972 85.9021 240.3222 99.9911 238.5442 99.9911 243.5082 81.4641 248.7612 81.4641 253.9822 92.9331 257.0552 81.4641 258.8332 81.4641 253.8322 100.1271"></polygon>
            <polygon id="Fill-27" fill="#DB4637" points="272.6484 91.2502 270.3064 99.9912 264.8364 99.9912 269.8004 81.4642 275.2704 81.4642 273.0524 89.7432 279.2554 89.7432 281.4734 81.4642 286.9434 81.4642 281.9794 99.9912 276.5094 99.9912 278.8514 91.2502"></polygon>
            <path d="M219.6504,95.0778 C219.6514,93.8918 219.5954,93.0938 219.4844,92.6818 C219.3734,92.2708 219.1124,91.9198 218.7014,91.6298 C218.1184,91.2048 217.0914,90.9828 215.6214,90.9648 L215.6544,90.8428 C217.5164,90.7158 219.0204,90.2618 220.1664,89.4788 C221.3124,88.6958 222.0714,87.6118 222.4424,86.2278 C222.6614,85.4128 222.6684,84.6668 222.4654,83.9878 C222.2634,83.3098 221.8754,82.7898 221.3024,82.4268 C220.7294,82.0658 220.0394,81.8138 219.2314,81.6738 C218.4214,81.5338 217.2854,81.4638 215.8194,81.4638 L215.5104,81.4638 L215.1384,82.8518 C215.9714,82.9228 216.5414,83.1978 216.8144,83.7028 C217.1314,84.2908 217.1104,85.2548 216.7524,86.5938 C216.3934,87.9338 215.8974,88.8978 215.2654,89.4848 C214.7214,89.9908 214.0044,90.2658 213.1334,90.3368 L212.7504,91.7638 C213.4434,91.8608 213.8894,92.0988 214.0744,92.4848 C214.2444,92.8288 214.3164,93.6928 214.2894,95.0778 L214.1534,99.9908 L219.6374,99.9908 L219.6504,95.0778 Z" id="Fill-29" fill="#DB4637"></path>
            <polygon id="Fill-31" fill="#DB4637" points="211.2822 91.7116 211.6412 90.3686 213.6642 82.8206 214.0272 81.4636 208.5572 81.4636 203.5942 99.9916 209.0622 99.9916"></polygon>
            <path d="M366.2988,98.2966 C365.2558,98.6806 364.3398,98.7426 363.0488,98.7426 C362.3428,98.7426 361.7398,98.6026 361.2408,98.3216 C360.7408,98.0416 360.4078,97.6566 360.2398,97.1686 C360.0878,96.7246 360.0378,96.1816 360.0928,95.5396 C360.1478,94.8966 360.3198,94.0326 360.6118,92.9466 L363.6888,81.4636 L358.2178,81.4636 L355.3128,92.3086 C354.9648,93.6026 354.7988,94.6976 354.8128,95.5936 C354.8248,96.4896 355.0198,97.2676 355.3958,97.9286 C356.2998,99.5486 358.3088,100.3576 361.4208,100.3576 C363.1548,100.3576 364.6658,100.0706 365.9708,99.5206 L366.2988,98.2966 Z" id="Fill-33" fill="#DB4637"></path>
            <path d="M372.2939,81.4636 L369.2609,92.7836 C369.2549,92.8066 369.2479,92.8276 369.2409,92.8506 L367.7229,98.5166 C368.4449,97.9776 369.0849,97.3346 369.6209,96.5576 C370.2849,95.5986 370.8249,94.3406 371.2419,92.7836 L374.2739,81.4636 L372.2939,81.4636 Z" id="Fill-35" fill="#DB4637"></path>
            <polygon id="Fill-37" fill="#DB4637" points="299.1963 81.3278 296.6583 81.3278 283.5273 99.9918 285.2163 99.9918 294.6153 86.6218 296.6383 99.9918 302.6113 99.9918"></polygon>
            <polygon id="Fill-39" fill="#DB4637" points="294.6133 92.9367 294.2373 94.3407 288.3883 94.3407 288.7643 92.9367"></polygon>
            <polygon id="Fill-41" fill="#DB4637" points="169.5024 81.3278 166.9644 81.3278 153.8334 99.9918 155.5214 99.9918 164.9214 86.6218 166.9444 99.9918 172.9174 99.9918"></polygon>
            <polygon id="Fill-43" fill="#DB4637" points="164.9199 92.9367 164.5439 94.3407 158.6949 94.3407 159.0709 92.9367"></polygon>
            <path d="M343.707,98.8757 C343.345,98.9197 343.02,98.9457 342.743,98.9457 C340.996,98.9457 340.005,98.2537 339.77,96.8697 C339.524,95.4217 339.795,93.2317 340.58,90.2997 C341.982,85.0697 343.872,82.4547 346.252,82.4547 C346.858,82.4547 347.353,82.6587 347.737,83.0657 C348.121,83.4727 348.341,84.0287 348.396,84.7347 C348.467,85.4497 348.384,86.3677 348.147,87.4897 L353.549,87.4897 C353.673,86.8927 353.727,86.3907 353.708,85.9837 C353.675,85.1957 353.474,84.4637 353.103,83.7847 C352.733,83.1057 352.252,82.5857 351.662,82.2237 C350.342,81.4087 348.695,81.0017 346.723,81.0017 C345.492,81.0017 344.281,81.1647 343.09,81.4907 C341.409,81.9527 339.981,82.6897 338.805,83.7027 C336.909,85.3417 335.564,87.6437 334.769,90.6117 C333.937,93.7157 334.113,96.1137 335.298,97.8057 C336.496,99.5167 338.578,100.3717 341.546,100.3717 C342.117,100.3717 342.716,100.3367 343.329,100.2847 L343.707,98.8757 Z" id="Fill-45" fill="#DB4637"></path>
            <path d="M346.9912,92.1594 L345.2622,98.6064 L345.2622,98.6074 L344.8592,100.1104 C345.6712,99.9944 346.5072,99.8484 347.3862,99.6524 C348.4532,99.4164 349.5132,99.1044 350.5692,98.7154 L352.3252,92.1594 L346.9912,92.1594 Z" id="Fill-47" fill="#DB4637"></path>
            <polygon id="Fill-49" fill="#DB4637" points="237.4219 89.7433 232.5929 89.7433 232.2109 91.1683 237.0399 91.1683"></polygon>
            <polygon id="Fill-51" fill="#DB4637" points="240.4551 81.4636 234.8101 81.4636 234.4151 82.9426 240.0591 82.9426"></polygon>
            <polygon id="Fill-53" fill="#DB4637" points="230.2432 98.5119 229.8472 99.9909 235.8702 99.9909 236.2672 98.5119"></polygon>
            <polygon id="Fill-55" fill="#DB4637" points="233.3281 81.4636 227.8591 81.4636 222.8941 99.9916 228.3641 99.9916"></polygon>
            <path d="M183.0522,98.9372 C181.7322,98.7092 181.0112,97.8162 180.8972,96.2452 C180.8092,94.8882 181.0722,93.0602 181.6882,90.7612 C182.4722,87.8392 183.3752,85.7242 184.4002,84.4162 C185.2512,83.3292 186.2702,82.7012 187.4522,82.5172 L187.8502,81.0302 C186.6062,81.0892 185.4652,81.2592 184.4412,81.5522 C183.2262,81.9002 182.0882,82.4322 181.0282,83.1472 C178.5842,84.8032 176.9092,87.3232 176.0022,90.7072 C175.0952,94.0922 175.4112,96.6112 176.9492,98.2672 C178.1712,99.5982 180.0772,100.3142 182.6522,100.4292 L183.0522,98.9372 Z" id="Fill-57" fill="#DB4637"></path>
            <path d="M195.0947,83.2282 C193.8657,81.8772 191.9417,81.1482 189.3337,81.0272 L188.9317,82.5282 C189.4917,82.6272 189.9397,82.8252 190.2617,83.1332 C190.7257,83.5942 190.9937,84.2822 191.0657,85.1962 C191.1797,86.5262 190.9167,88.3862 190.2767,90.7752 C189.5057,93.6522 188.6057,95.7432 187.5787,97.0462 C186.7297,98.1212 185.7137,98.7462 184.5357,98.9342 L184.1367,100.4222 C187.8727,100.2672 190.8597,98.9622 193.0787,96.4762 C193.6767,95.7972 194.2347,94.9582 194.7507,93.9582 C195.2677,92.9582 195.6637,91.9472 195.9377,90.9242 C196.8707,87.4412 196.5897,84.8752 195.0947,83.2282" id="Fill-59" fill="#DB4637"></path>
            <path d="M312.7461,98.9372 C311.4261,98.7092 310.7051,97.8162 310.5911,96.2452 C310.5031,94.8882 310.7671,93.0602 311.3821,90.7612 C312.1661,87.8392 313.0691,85.7242 314.0941,84.4162 C314.9451,83.3292 315.9641,82.7012 317.1461,82.5172 L317.5441,81.0302 C316.3001,81.0892 315.1591,81.2592 314.1351,81.5522 C312.9201,81.9002 311.7821,82.4322 310.7231,83.1472 C308.2781,84.8032 306.6031,87.3232 305.6961,90.7072 C304.7891,94.0922 305.1051,96.6112 306.6431,98.2672 C307.8651,99.5982 309.7711,100.3142 312.3461,100.4292 L312.7461,98.9372 Z" id="Fill-61" fill="#DB4637"></path>
            <path d="M324.7891,83.2282 C323.5601,81.8772 321.6361,81.1482 319.0271,81.0272 L318.6261,82.5282 C319.1851,82.6272 319.6341,82.8252 319.9561,83.1332 C320.4201,83.5942 320.6871,84.2822 320.7601,85.1962 C320.8741,86.5262 320.6101,88.3862 319.9711,90.7752 C319.2001,93.6522 318.3001,95.7432 317.2721,97.0462 C316.4241,98.1212 315.4081,98.7462 314.2291,98.9342 L313.8311,100.4222 C317.5661,100.2672 320.5541,98.9622 322.7721,96.4762 C323.3711,95.7972 323.9291,94.9582 324.4441,93.9582 C324.9621,92.9582 325.3571,91.9472 325.6321,90.9242 C326.5641,87.4412 326.2841,84.8752 324.7891,83.2282" id="Fill-63" fill="#DB4637"></path>
            <g id="Group" transform="translate(-349.000000, 0.000000)">
                <polygon id="Fill-65" fill="#FFFFFF" points="349.313 107.551 456.842 107.551 456.842 0.022 349.313 0.022"></polygon>
                <path d="M349.2983,0.028 C349.3123,1.12 349.3373,2.211 349.3373,3.303 C349.3413,36.829 349.3423,70.355 349.3433,103.881 C349.3443,105.122 349.3433,106.362 349.3433,107.773 C350.6183,107.682 351.7943,107.527 352.9713,107.525 C361.9093,107.504 370.8473,107.512 379.7843,107.512 L400.6263,107.512 C417.8513,107.512 435.0763,107.506 452.3013,107.525 C453.8103,107.527 455.3183,107.698 456.8273,107.791 C456.5143,107.869 456.2023,108.015 455.8903,108.015 C447.2223,108.028 438.5543,108.025 429.8863,108.025 L348.8293,108.025 C348.8293,72.339 348.8283,36.652 348.8543,0.965 C348.8543,0.672 348.3703,-0.046 349.2983,0.028" id="Fill-67" fill="#FFFFFF"></path>
                <path d="M456.8271,0.2624 C455.0731,0.2724 453.3191,0.2934 451.5651,0.2924 C436.2281,0.2864 420.8911,0.2694 405.5541,0.2704 C389.5941,0.2704 373.6331,0.2894 357.6731,0.2844 C356.9901,0.2844 356.3071,0.1174 355.6231,0.0284 C389.0071,0.0284 422.3901,0.0274 455.7731,0.0374 C456.1241,0.0384 456.4761,0.1844 456.8271,0.2624" id="Fill-68" fill="#FFFFFF"></path>
                <path d="M456.8271,106.1511 C456.7361,104.7411 456.5651,103.3311 456.5651,101.9211 C456.5601,86.5801 456.5801,71.2401 456.6061,55.9001 C456.6071,55.4701 456.7501,55.0411 456.8271,54.6121 L456.8271,106.1511 Z" id="Fill-69" fill="#FFFFFF"></path>
                <path d="M456.8271,53.2067 C456.7341,52.8557 456.5601,52.5047 456.5591,52.1537 C456.5481,35.8357 456.5501,19.5167 456.5651,3.1987 C456.5661,2.8447 456.7361,2.4907 456.8271,2.1367 L456.8271,53.2067 Z" id="Fill-70" fill="#FFFFFF"></path>
                <path d="M405.7456,50.8532 C405.0616,51.3392 404.4406,51.9132 403.7926,52.4502 C403.6856,52.3652 403.5796,52.2792 403.4726,52.1932 L403.4726,48.9732 C403.0436,49.0162 402.6946,49.0512 402.4646,49.0732 C401.9616,50.2692 402.8556,51.5352 401.8706,52.6452 C401.1646,50.9032 400.1266,50.0942 398.7336,50.4312 C399.3686,51.2312 399.9096,51.9132 400.4546,52.6002 C400.2746,52.6292 400.1006,52.6562 399.9236,52.6842 C400.7446,53.0052 401.4356,53.6222 401.6996,54.4932 C402.4706,54.9092 402.0856,56.4892 402.1826,56.4692 C402.5256,58.8522 402.5256,58.8522 403.3956,58.6682 L403.3956,56.0192 C403.5346,56.0782 403.6676,56.1352 403.7976,56.1912 C403.7776,56.1312 403.7586,56.0702 403.7416,56.0092 C403.6396,55.6322 403.7166,55.3142 403.8936,55.0732 C403.8016,54.7332 403.8696,54.3522 404.1946,54.0272 L406.9796,51.2422 C407.0066,50.8932 407.0296,50.5772 407.0526,50.2652 C406.6136,50.4572 406.1276,50.5822 405.7456,50.8532" id="Fill-71" fill="#910F1F"></path>
                <path d="M403.5068,22.3923 C402.9798,22.8153 402.4548,23.0353 402.4458,23.2753 C402.3758,25.0863 402.4078,26.9013 402.4078,28.6823 C403.0858,28.9073 403.3578,28.7913 403.4738,28.5403 C403.6308,28.2033 403.5068,22.3923 403.5068,22.3923" id="Fill-72" fill="#910F1F"></path>
                <path d="M426.7036,52.9577 C426.7126,53.0147 426.7196,53.0727 426.7196,53.1307 L426.7196,54.3217 C426.7366,54.3327 426.7536,54.3437 426.7696,54.3557 C426.7676,54.3247 426.7656,54.2947 426.7626,54.2637 L429.3296,54.2637 L429.3296,53.1917 C428.5316,52.8447 427.5956,53.3657 426.7036,52.9577" id="Fill-73" fill="#910F1F"></path>
                <path d="M386.6406,36.86 C386.7436,35.748 385.6446,34.561 384.0516,34.146 C384.0316,34.163 384.0126,34.18 383.9906,34.195 C383.9766,34.504 383.9556,34.813 383.9306,35.121 C383.9286,35.142 383.9236,35.16 383.9206,35.18 C383.9346,35.195 383.9496,35.209 383.9626,35.224 L383.9776,35.161 C384.9786,35.621 385.2926,37.012 386.6406,36.86" id="Fill-74" fill="#910F1F"></path>
                <path d="M389.2808,54.0275 C389.1348,52.5775 388.0598,53.4035 387.5608,53.3575 C386.0838,53.2215 384.5868,53.3085 383.0358,53.3085 C382.9328,54.0375 382.6338,54.6415 383.9488,54.4835 C385.6078,54.2845 387.3098,54.4355 388.9928,54.4355 C389.0418,54.5085 389.3008,53.9375 389.2808,54.0275" id="Fill-75" fill="#910F1F"></path>
                <path d="M366.5161,53.4782 C366.4951,53.3652 366.4741,53.2522 366.4531,53.1392 C366.5071,53.1232 366.5631,53.1062 366.6171,53.0892 L356.8531,53.0892 C356.9551,53.1932 357.0571,53.2982 357.1611,53.4072 L355.4971,53.4072 C355.4571,53.6722 355.4091,53.8592 355.4061,54.0462 C355.4031,54.2312 355.4471,54.4162 355.4841,54.7112 L367.7381,54.7112 C367.7861,54.4362 367.8511,54.2502 367.8411,54.0692 C367.8281,53.8522 367.7511,53.6382 367.6961,53.3952 C367.2551,53.4262 366.8851,53.4522 366.5161,53.4782" id="Fill-76" fill="#910F1F"></path>
                <path d="M454.9072,106.154 L454.9072,104.855 C454.9062,88.926 454.9122,72.998 454.8842,57.07 C454.8832,56.098 454.6072,55.129 454.4852,54.155 C454.4572,53.938 454.5292,53.704 454.5762,53.482 C454.6782,53.006 454.8882,52.533 454.8882,52.058 C454.9052,37.457 454.9022,22.856 454.9022,8.254 L454.9022,3.549 C454.5222,3.516 454.1972,3.488 453.6142,3.437 C453.8662,2.809 454.0702,2.3 454.3282,1.654 L452.3682,1.654 C437.1812,1.656 421.9942,1.647 406.8072,1.678 C405.6082,1.68 404.4102,1.966 403.2102,2.107 C403.0212,2.13 402.8212,2.102 402.6322,2.068 C401.8872,1.938 401.1442,1.678 400.4012,1.677 C385.9562,1.654 371.5112,1.667 357.0652,1.651 C355.4732,1.649 353.8802,1.508 352.2872,1.445 C352.0442,1.436 351.7982,1.502 351.5532,1.533 C351.4812,1.645 351.4092,1.757 351.3372,1.868 C351.7102,2.135 352.1772,2.335 352.4282,2.689 C352.6342,2.979 352.5822,3.452 352.6452,3.844 C352.2952,3.734 351.8992,3.692 351.6042,3.498 C351.1342,3.189 350.7312,2.778 350.3632,2.464 L350.3632,53.265 C351.0552,53.265 351.5902,53.207 352.1032,53.291 C352.3492,53.331 352.7652,53.7 352.7322,53.814 C352.6492,54.1 352.3912,54.491 352.1402,54.543 C351.6102,54.654 351.0392,54.577 350.5252,54.577 L350.5252,106.156 L351.6822,106.156 C367.9222,106.154 384.1632,106.157 400.4042,106.132 C401.1452,106.13 401.8822,105.853 402.6262,105.741 C402.8822,105.702 403.1602,105.747 403.4182,105.801 C403.8902,105.9 404.3552,106.14 404.8242,106.141 C420.1672,106.158 435.5102,106.155 450.8532,106.154 L454.9072,106.154 M456.5412,0.257 L456.5412,2.131 C456.4502,2.485 456.2802,2.84 456.2802,3.194 C456.2652,19.512 456.2622,35.83 456.2742,52.148 C456.2742,52.5 456.4482,52.851 456.5412,53.202 L456.5412,54.607 C456.4652,55.036 456.3212,55.465 456.3202,55.895 C456.2942,71.235 456.2742,86.575 456.2792,101.916 C456.2792,103.326 456.4502,104.736 456.5412,106.146 L456.5412,107.786 C455.0332,107.693 453.5252,107.522 452.0162,107.52 C434.7912,107.501 417.5662,107.507 400.3412,107.507 L379.4992,107.507 C370.5612,107.507 361.6242,107.499 352.6862,107.52 C351.5092,107.522 350.3332,107.677 349.0582,107.768 L349.0582,103.876 C349.0572,70.35 349.0552,36.824 349.0522,3.298 C349.0522,2.206 349.0262,1.115 349.0132,0.023 L355.3382,0.023 C356.0212,0.112 356.7042,0.279 357.3872,0.279 C373.3482,0.284 389.3082,0.265 405.2682,0.265 C420.6052,0.264 435.9422,0.281 451.2792,0.287 C453.0332,0.288 454.7872,0.268 456.5412,0.257" id="Fill-77" fill="#910F1F"></path>
                <path d="M403.5312,32.7179 L403.5312,38.5629 C402.7362,38.8489 402.4202,38.6239 402.4372,37.8059 C402.4692,36.3419 402.4282,34.8759 402.4452,33.4109 C402.4552,32.5459 402.4792,32.5469 403.5312,32.7179" id="Fill-78" fill="#910F1F"></path>
                <path d="M403.5176,12.1091 C402.6566,12.4171 402.4096,12.0701 402.4236,11.3071 C402.4516,9.8351 402.4716,8.3621 402.4336,6.8911 C402.4116,6.0391 402.8296,6.0101 403.5176,6.2081 L403.5176,12.1091 Z" id="Fill-79" fill="#910F1F"></path>
                <path d="M403.5801,75.0842 C402.7061,75.4242 402.4061,75.1652 402.4231,74.3532 C402.4521,72.9002 402.3921,71.4432 402.4531,69.9922 C402.4651,69.6942 402.8441,69.4122 403.0531,69.1232 C403.2291,69.4012 403.5481,69.6752 403.5561,69.9592 C403.6041,71.6462 403.5801,73.3362 403.5801,75.0842" id="Fill-80" fill="#910F1F"></path>
                <path d="M403.4863,65.0934 C403.2093,65.1154 402.9133,65.1394 402.4433,65.1764 C402.4433,63.2584 402.4163,61.4124 402.4783,59.5684 C402.4853,59.3384 402.9653,59.1244 403.4863,58.6814 L403.4863,65.0934 Z" id="Fill-81" fill="#910F1F"></path>
                <path d="M403.584,95.7292 C403.584,97.4442 403.609,99.1792 403.558,100.9112 C403.551,101.1812 403.202,101.4412 403.01,101.7052 C402.815,101.4422 402.461,101.1842 402.452,100.9152 C402.4,99.4172 402.456,97.9172 402.427,96.4182 C402.41,95.5502 402.786,95.4112 403.584,95.7292" id="Fill-82" fill="#910F1F"></path>
                <path d="M403.5361,42.3976 L403.5361,48.7076 L402.4401,48.7076 C402.4401,46.8426 402.4101,44.9976 402.4801,43.1566 C402.4881,42.9386 403.0401,42.7406 403.5361,42.3976" id="Fill-83" fill="#910F1F"></path>
                <path d="M435.5547,53.3366 L438.8907,53.3366 C438.9717,54.0226 439.2867,54.7816 437.9937,54.4766 C437.5037,54.3606 436.9437,54.3856 436.4467,54.4926 C435.2147,54.7576 435.3887,54.0866 435.5547,53.3366" id="Fill-84" fill="#910F1F"></path>
                <path d="M370.7764,54.5519 C370.8134,54.0419 370.8404,53.6749 370.8704,53.2559 C371.8984,53.2559 372.8294,53.2159 373.7534,53.2869 C373.9614,53.3019 374.2914,53.7019 374.2904,53.9239 C374.2904,54.1339 373.9414,54.5069 373.7244,54.5229 C372.8054,54.5909 371.8784,54.5519 370.7764,54.5519" id="Fill-85" fill="#910F1F"></path>
                <path d="M441.8398,54.5666 L441.8398,53.3336 L445.1788,53.3336 C445.3668,54.1126 445.6068,54.7706 444.2358,54.4326 C443.5168,54.2546 442.6928,54.5046 441.8398,54.5666" id="Fill-86" fill="#910F1F"></path>
                <path d="M454.1128,54.5778 C453.1378,54.5778 452.2328,54.6278 451.3398,54.5448 C451.0968,54.5218 450.8208,54.1258 450.7058,53.8418 C450.6628,53.7338 451.0198,53.2998 451.2108,53.2878 C452.1458,53.2278 453.0858,53.2608 454.1128,53.2608 L454.1128,54.5778 Z" id="Fill-87" fill="#910F1F"></path>
                <path d="M403.5259,5.9391 C403.1189,5.8301 402.5679,5.7651 402.5619,5.6671 C402.5019,4.6351 402.5049,3.5971 402.5699,2.5651 C402.5759,2.4721 403.1409,2.4141 403.5259,2.3201 L403.5259,5.9391 Z" id="Fill-88" fill="#910F1F"></path>
                <path d="M403.5332,12.5397 L403.5332,15.8187 C402.7792,16.1297 402.3802,15.9627 402.4282,15.0607 C402.4582,14.4817 402.4612,13.8987 402.4292,13.3207 C402.3872,12.5357 402.6822,12.2387 403.5332,12.5397" id="Fill-89" fill="#910F1F"></path>
                <path d="M402.4326,18.8386 L403.5386,18.8386 L403.5386,22.1666 C402.7916,22.4556 402.3916,22.3016 402.4256,21.3966 C402.4576,20.5596 402.4326,19.7186 402.4326,18.8386" id="Fill-90" fill="#910F1F"></path>
                <path d="M390.1436,41.1882 C389.2916,41.2002 387.8586,40.1662 387.7596,39.4992 C387.6666,38.8742 387.9916,38.6032 388.5816,38.7332 C389.1416,38.8562 390.1826,40.4922 390.1436,41.1882" id="Fill-91" fill="#910F1F"></path>
                <path d="M403.5239,42.3493 C402.3619,42.4073 402.3779,42.4073 402.4179,39.9023 C402.4299,39.1513 402.5529,38.6593 403.5239,39.0173 L403.5239,42.3493 Z" id="Fill-92" fill="#910F1F"></path>
                <path d="M402.5713,65.3703 C402.9243,65.3943 403.2163,65.4153 403.5413,65.4373 L403.5413,68.7053 C402.3203,69.0493 402.1093,68.3663 402.5713,65.3703" id="Fill-93" fill="#910F1F"></path>
                <path d="M403.5215,78.9015 L402.4395,78.9015 C402.4395,77.9945 402.4705,77.1555 402.4305,76.3195 C402.3915,75.5045 402.7125,75.2685 403.5215,75.5585 L403.5215,78.9015 Z" id="Fill-94" fill="#910F1F"></path>
                <path d="M451.9512,103.1857 C452.6292,103.1667 454.2582,104.2617 454.3742,104.7627 C454.5002,105.3007 454.0082,105.7897 453.4912,105.6407 C452.8792,105.4637 451.9072,103.9697 451.9512,103.1857" id="Fill-95" fill="#910F1F"></path>
                <path d="M368.8159,20.069 C369.5239,19.983 371.0509,20.799 371.2169,21.402 C371.2839,21.646 371.2649,21.973 371.1479,22.187 C371.0709,22.328 370.7369,22.415 370.5379,22.387 C369.9179,22.299 368.8049,20.758 368.8159,20.069" id="Fill-96" fill="#910F1F"></path>
                <path d="M403.5444,32.2536 C402.2714,32.3636 402.2714,32.3636 402.5494,28.9286 C402.6794,28.8986 402.8244,28.8366 402.9684,28.8386 C403.1524,28.8426 403.3354,28.8986 403.5444,28.9366 L403.5444,32.2536 Z" id="Fill-97" fill="#910F1F"></path>
                <path d="M439.332,18.6808 C438.952,18.4928 438.62,18.4238 438.596,18.2968 C438.544,18.0258 438.557,17.6508 438.713,17.4508 C439.082,16.9808 439.526,16.5598 439.99,16.1808 C440.153,16.0478 440.52,15.9938 440.691,16.0888 C440.876,16.1908 441.097,16.6318 441.032,16.7148 C440.502,17.3968 439.91,18.0288 439.332,18.6808" id="Fill-98" fill="#910F1F"></path>
                <path d="M429.7993,80.1867 C430.3653,80.9347 430.9193,81.6397 431.4253,82.3777 C431.4753,82.4517 431.2713,82.8177 431.1163,82.8817 C430.9373,82.9557 430.6173,82.9227 430.4723,82.7997 C429.9783,82.3837 429.5033,81.9327 429.0893,81.4387 C428.9553,81.2787 428.9583,80.9167 429.0373,80.6977 C429.0963,80.5357 429.3793,80.4547 429.7993,80.1867" id="Fill-99" fill="#910F1F"></path>
                <path d="M446.8398,11.2775 C446.4298,10.9525 446.1628,10.8455 446.1148,10.6765 C446.0518,10.4545 446.0718,10.1035 446.2118,9.9475 C446.6238,9.4885 447.0898,9.0685 447.5818,8.6955 C447.7628,8.5585 448.0828,8.5405 448.3238,8.5755 C448.4238,8.5895 448.5978,8.9645 448.5448,9.0375 C448.0158,9.7805 447.4458,10.4935 446.8398,11.2775" id="Fill-100" fill="#910F1F"></path>
                <path d="M356.8232,7.3366 C356.4712,7.4536 355.9672,7.7766 355.7942,7.6496 C355.2002,7.2146 354.6852,6.6506 354.2372,6.0616 C354.1612,5.9626 354.5612,5.4996 354.7412,5.2056 C355.4432,5.7686 356.1462,6.3316 356.8482,6.8936 C356.8402,7.0416 356.8312,7.1886 356.8232,7.3366" id="Fill-101" fill="#910F1F"></path>
                <path d="M393.1914,43.7048 C392.8394,43.8218 392.3354,44.1448 392.1624,44.0178 C391.5684,43.5828 391.0534,43.0188 390.6054,42.4298 C390.5294,42.3308 390.9294,41.8678 391.1094,41.5738 L393.2164,43.2618 L393.1914,43.7048 Z" id="Fill-102" fill="#910F1F"></path>
                <path d="M396.1899,46.7033 C395.8379,46.8203 395.3339,47.1433 395.1609,47.0163 C394.5669,46.5813 394.0519,46.0173 393.6039,45.4283 C393.5279,45.3293 393.9279,44.8663 394.1079,44.5723 C394.8099,45.1353 395.5129,45.6983 396.2149,46.2603 L396.1899,46.7033 Z" id="Fill-103" fill="#910F1F"></path>
                <path d="M403.5317,88.9924 C403.1927,89.0094 402.8977,89.0244 402.4827,89.0444 C402.4827,87.9164 402.4497,86.8524 402.5247,85.7964 C402.5347,85.6674 403.1217,85.5794 403.5317,85.4424 L403.5317,88.9924 Z" id="Fill-104" fill="#910F1F"></path>
                <path d="M365.8267,92.4948 C365.0667,93.0758 364.3537,93.6378 363.6137,94.1608 C363.5407,94.2128 363.1797,94.0488 363.1577,93.9428 C363.1067,93.6968 363.0897,93.3538 363.2247,93.1758 C363.5887,92.6968 364.0067,92.2438 364.4717,91.8648 C364.6617,91.7088 365.0427,91.6968 365.3067,91.7548 C365.4617,91.7898 365.5567,92.0928 365.8267,92.4948" id="Fill-105" fill="#910F1F"></path>
                <path d="M402.4824,85.4855 L402.4824,81.8635 C402.8014,81.8325 403.0954,81.8035 403.5714,81.7565 C403.5714,82.8735 403.6114,83.9225 403.5304,84.9635 C403.5174,85.1305 402.9644,85.2555 402.4824,85.4855" id="Fill-106" fill="#910F1F"></path>
                <path d="M403.5464,91.9445 L403.5464,95.2285 C402.5404,95.4495 402.5404,95.4495 402.4864,91.9445 L403.5464,91.9445 Z" id="Fill-107" fill="#910F1F"></path>
                <path d="M403.5405,102.0456 L403.5405,105.3456 L402.4405,105.3456 C402.4405,104.4266 402.4705,103.5866 402.4335,102.7486 C402.3935,101.8496 402.8345,101.7976 403.5405,102.0456" id="Fill-108" fill="#910F1F"></path>
                <path d="M393.6367,63.8976 C393.5867,63.0606 394.5027,61.5776 395.2017,61.4986 C395.4487,61.4706 395.9557,61.9426 395.9907,62.2296 C396.0527,62.7406 394.3547,63.8986 393.6367,63.8976" id="Fill-109" fill="#910F1F"></path>
                <path d="M441.1724,91.5241 C441.7544,92.1631 442.3554,92.7861 442.8994,93.4561 C442.9844,93.5611 442.8784,93.9931 442.7484,94.0631 C442.5384,94.1741 442.1464,94.2241 441.9874,94.1001 C441.4414,93.6751 440.8984,93.2101 440.4974,92.6571 C440.3564,92.4631 440.6274,91.9701 440.7104,91.6141 C440.8644,91.5841 441.0184,91.5541 441.1724,91.5241" id="Fill-110" fill="#910F1F"></path>
                <path d="M418.9517,68.7653 C419.5297,69.5013 420.1077,70.2363 420.6857,70.9723 C420.4367,71.1303 420.0437,71.4783 419.9617,71.4163 C419.3327,70.9383 418.7177,70.4203 418.2097,69.8193 C418.0887,69.6773 418.3907,69.1773 418.4977,68.8423 C418.6487,68.8163 418.8007,68.7913 418.9517,68.7653" id="Fill-111" fill="#910F1F"></path>
                <path d="M397.4189,60.0939 C397.3299,59.3929 398.4089,57.7099 399.0279,57.7399 C399.3029,57.7539 399.7529,58.1739 399.7819,58.4459 C399.8429,59.0199 398.0999,60.1639 397.4189,60.0939" id="Fill-112" fill="#910F1F"></path>
                <path d="M367.5356,18.4489 C366.1326,18.6979 365.7416,17.5809 365.0226,17.0349 C364.9856,17.0069 365.3846,16.4059 365.5806,16.0719 C366.1736,16.5149 366.8056,16.9169 367.3386,17.4229 C367.5256,17.6009 367.4666,18.0369 367.5356,18.4489" id="Fill-113" fill="#910F1F"></path>
                <path d="M446.5811,97.9069 C445.3081,98.0179 444.8841,96.9659 444.2111,96.3239 C444.1561,96.2719 444.5241,95.5119 444.7451,95.4849 C445.4491,95.3979 446.6491,96.9879 446.5811,97.9069" id="Fill-114" fill="#910F1F"></path>
                <path d="M358.6738,8.697 C359.3088,9.516 359.8888,10.264 360.4678,11.012 C360.1448,11.135 359.6988,11.456 359.5198,11.346 C358.9878,11.016 358.5318,10.544 358.1098,10.07 C357.9628,9.905 357.9338,9.556 357.9848,9.321 C358.0218,9.154 358.2838,9.036 358.6738,8.697" id="Fill-115" fill="#910F1F"></path>
                <path d="M367.4902,90.6042 C367.1842,90.3692 366.9132,90.2662 366.8812,90.1122 C366.8322,89.8792 366.8682,89.5452 367.0112,89.3722 C367.3902,88.9122 367.8152,88.4762 368.2852,88.1122 C368.4712,87.9672 368.8692,87.9392 369.0852,88.0412 C369.2502,88.1192 369.4262,88.6102 369.3482,88.7002 C368.7772,89.3522 368.1442,89.9502 367.4902,90.6042" id="Fill-116" fill="#910F1F"></path>
                <path d="M400.4883,57.6056 C400.1823,57.3706 399.9113,57.2676 399.8793,57.1136 C399.8303,56.8806 399.8663,56.5466 400.0093,56.3736 C400.3883,55.9136 400.8133,55.4776 401.2833,55.1136 C401.4693,54.9696 401.8673,54.9406 402.0833,55.0426 C402.2483,55.1206 402.4243,55.6116 402.3463,55.7016 C401.7753,56.3536 401.1423,56.9516 400.4883,57.6056" id="Fill-117" fill="#910F1F"></path>
                <path d="M439.1919,90.09 C438.8659,90.185 438.4029,90.464 438.2399,90.342 C437.6639,89.908 437.1519,89.368 436.7039,88.799 C436.5889,88.654 436.7319,88.2 436.8919,87.991 C436.9659,87.895 437.4109,87.978 437.6089,88.104 C438.2599,88.518 438.8739,88.988 439.5019,89.437 C439.3989,89.655 439.2949,89.872 439.1919,90.09" id="Fill-118" fill="#910F1F"></path>
                <path d="M422.7407,35.8063 C422.0717,36.3663 421.4157,36.9423 420.7187,37.4653 C420.6307,37.5313 420.2507,37.3633 420.1487,37.2103 C420.0517,37.0643 420.0547,36.7153 420.1657,36.5933 C420.6557,36.0493 421.1677,35.5103 421.7487,35.0733 C421.9037,34.9563 422.3337,35.2043 422.6367,35.2853 C422.6717,35.4593 422.7057,35.6323 422.7407,35.8063" id="Fill-119" fill="#910F1F"></path>
                <path d="M450.7402,101.0197 C450.3552,101.4487 450.2232,101.7047 450.0202,101.7887 C449.8582,101.8547 449.5542,101.7737 449.4102,101.6477 C448.9582,101.2517 448.5202,100.8287 448.1462,100.3607 C448.0152,100.1967 448.0092,99.8427 448.0912,99.6317 C448.1452,99.4917 448.5472,99.3237 448.6382,99.3877 C449.3242,99.8717 449.9712,100.4107 450.7402,101.0197" id="Fill-120" fill="#910F1F"></path>
                <path d="M376.5151,27.5388 C377.2811,27.4998 378.9501,28.7648 378.8661,29.3508 C378.8321,29.5878 378.3881,29.9538 378.1471,29.9418 C377.4761,29.9068 376.4741,28.3928 376.5151,27.5388" id="Fill-121" fill="#910F1F"></path>
                <path d="M445.0327,13.0754 C444.2567,13.6734 443.5507,14.2364 442.8117,14.7544 C442.7447,14.8014 442.3527,14.5814 442.3197,14.4374 C442.2667,14.2084 442.3057,13.8634 442.4527,13.7004 C442.8637,13.2464 443.3327,12.8384 443.8177,12.4614 C443.9667,12.3444 444.2677,12.3054 444.4447,12.3734 C444.6177,12.4394 444.7217,12.6874 445.0327,13.0754" id="Fill-122" fill="#910F1F"></path>
                <path d="M407.4692,58.2692 C408.1342,58.1752 409.9502,59.3772 409.8642,59.9442 C409.8222,60.2202 409.3612,60.6242 409.0802,60.6322 C408.4882,60.6492 407.3992,58.9382 407.4692,58.2692" id="Fill-123" fill="#910F1F"></path>
                <path d="M354.043,103.2365 C354.127,103.9145 352.922,105.6845 352.33,105.6125 C352.069,105.5815 351.658,105.0925 351.67,104.8265 C351.701,104.1075 353.256,103.1365 354.043,103.2365" id="Fill-124" fill="#910F1F"></path>
                <path d="M374.5825,26.4401 C373.9175,25.7811 373.2475,25.1271 372.6205,24.4351 C372.6035,24.4161 373.0655,23.7571 373.2865,23.7681 C374.0365,23.8041 375.0055,25.3031 374.5825,26.4401" id="Fill-125" fill="#910F1F"></path>
                <path d="M413.686,63.9484 C413.593,64.0664 413.487,64.3314 413.325,64.3724 C413.094,64.4304 412.757,64.4054 412.58,64.2684 C412.17,63.9524 411.761,63.5924 411.483,63.1644 C411.295,62.8744 411.329,62.4384 411.264,62.0684 C411.616,62.1284 412.041,62.0844 412.305,62.2704 C412.79,62.6124 413.186,63.0834 413.603,63.5164 C413.669,63.5854 413.649,63.7384 413.686,63.9484" id="Fill-126" fill="#910F1F"></path>
                <path d="M373.0396,84.1974 C373.1076,85.1104 372.0616,86.6554 371.3446,86.6344 C371.1026,86.6274 370.6746,86.1254 370.6826,85.8594 C370.6996,85.2744 372.3026,84.1944 373.0396,84.1974" id="Fill-127" fill="#910F1F"></path>
                <path d="M435.3618,85.947 C435.1568,86.288 435.0698,86.598 434.9378,86.619 C434.6708,86.66 434.3598,86.588 434.1038,86.478 C433.9548,86.414 433.8598,86.193 433.7718,86.026 C433.4858,85.486 433.2148,84.938 432.9388,84.394 C433.1698,84.322 433.5188,84.118 433.6128,84.201 C434.2228,84.745 434.7788,85.351 435.3618,85.947" id="Fill-128" fill="#910F1F"></path>
                <path d="M408.9805,48.9372 C408.9445,48.5292 408.7425,48.0252 408.9095,47.7342 C409.1815,47.2602 409.6555,46.8642 410.1245,46.5612 C410.3415,46.4222 410.7505,46.5822 411.0725,46.6062 C411.0165,46.9122 411.0425,47.2702 410.8875,47.5132 C410.5045,48.1142 410.0385,48.6632 409.6055,49.2332 C409.3975,49.1342 409.1885,49.0362 408.9805,48.9372" id="Fill-129" fill="#910F1F"></path>
                <path d="M416.4912,41.4269 C416.4552,41.0189 416.2532,40.5149 416.4202,40.2239 C416.6922,39.7509 417.1662,39.3539 417.6352,39.0509 C417.8522,38.9119 418.2612,39.0719 418.5832,39.0969 C418.5272,39.4019 418.5532,39.7599 418.3982,40.0029 C418.0152,40.6039 417.5492,41.1529 417.1162,41.7229 C416.9082,41.6239 416.6992,41.5259 416.4912,41.4269" id="Fill-130" fill="#910F1F"></path>
                <path d="M412.6108,44.8722 C412.5348,43.9762 413.5918,42.6482 414.4188,42.7112 C414.6358,42.7282 415.0168,43.1922 414.9858,43.3992 C414.8798,44.0882 413.3678,44.9642 412.6108,44.8722" id="Fill-131" fill="#910F1F"></path>
                <path d="M450.0605,7.2131 C450.0135,6.0431 451.0695,4.8781 452.1575,4.8001 C452.3665,5.9061 451.3125,7.1591 450.0605,7.2131" id="Fill-132" fill="#910F1F"></path>
                <path d="M361.5288,95.6418 C361.6318,96.4908 360.7528,97.7968 360.0548,97.9118 C359.3838,98.0238 359.1008,97.5358 359.3918,97.1098 C359.8698,96.4118 360.3438,95.5288 361.5288,95.6418" id="Fill-133" fill="#910F1F"></path>
                <path d="M361.1665,12.697 C361.5015,12.636 361.9405,12.411 362.1525,12.545 C362.6905,12.884 363.1495,13.362 363.5875,13.833 C363.7015,13.955 363.7025,14.302 363.6095,14.461 C363.5175,14.621 363.1425,14.811 363.0645,14.754 C362.3765,14.247 361.7265,13.689 361.0655,13.145 C361.0995,12.996 361.1325,12.846 361.1665,12.697" id="Fill-134" fill="#910F1F"></path>
                <path d="M379.2739,30.5612 C379.6089,30.5002 380.0479,30.2752 380.2599,30.4092 C380.7979,30.7482 381.2569,31.2262 381.6949,31.6972 C381.8089,31.8192 381.8099,32.1662 381.7169,32.3252 C381.6249,32.4852 381.2499,32.6752 381.1719,32.6182 C380.4839,32.1112 379.8339,31.5532 379.1729,31.0092 L379.2739,30.5612 Z" id="Fill-135" fill="#910F1F"></path>
                <path d="M381.8247,33.112 C382.1597,33.051 382.5987,32.826 382.8107,32.96 C383.3487,33.299 383.8077,33.777 384.2457,34.248 C384.3597,34.37 384.3607,34.717 384.2677,34.876 C384.1757,35.036 383.8007,35.226 383.7227,35.169 C383.0347,34.662 382.3847,34.104 381.7237,33.56 C381.7577,33.411 381.7907,33.261 381.8247,33.112" id="Fill-136" fill="#910F1F"></path>
                <path d="M417.3716,67.1125 C416.8086,67.4385 416.4556,67.7305 416.3826,67.6715 C415.7616,67.1725 415.1796,66.6225 414.6316,66.0435 C414.5886,65.9985 414.8936,65.6235 415.0366,65.4015 C415.7266,65.9075 416.4176,66.4135 417.3716,67.1125" id="Fill-137" fill="#910F1F"></path>
                <path d="M447.9907,53.2692 C447.8227,53.7782 447.7327,54.4582 447.5707,54.4752 C446.9257,54.5462 446.2557,54.4282 445.6057,54.3172 C445.5527,54.3082 445.5137,53.7952 445.5987,53.5642 C445.6517,53.4202 445.9437,53.2962 446.1367,53.2822 C446.6577,53.2442 447.1837,53.2692 447.9907,53.2692" id="Fill-138" fill="#910F1F"></path>
                <path d="M370.479,53.3371 L370.479,54.4881 L368.298,54.4881 C368.27,54.1511 368.24,53.7911 368.202,53.3371 L370.479,53.3371 Z" id="Fill-139" fill="#910F1F"></path>
                <path d="M355.3633,53.3307 C355.2923,53.7457 355.2873,54.4287 355.1493,54.4567 C354.5433,54.5787 353.8813,54.5947 353.2783,54.4647 C353.0953,54.4257 353.0383,53.7967 352.8883,53.3307 L355.3633,53.3307 Z" id="Fill-140" fill="#910F1F"></path>
                <path d="M441.6216,53.3322 C441.5116,53.7812 441.4776,54.4422 441.3206,54.4732 C440.7136,54.5922 440.0506,54.5872 439.4476,54.4512 C439.2816,54.4132 439.2546,53.7622 439.1486,53.3322 L441.6216,53.3322 Z" id="Fill-141" fill="#910F1F"></path>
                <path d="M435.3076,54.4875 L432.8436,54.4875 C432.9316,54.0795 432.9546,53.4165 433.1026,53.3875 C433.7146,53.2665 434.3766,53.2725 434.9926,53.3855 C435.1406,53.4125 435.1836,54.0235 435.3076,54.4875" id="Fill-142" fill="#910F1F"></path>
                <path d="M432.7129,53.3493 C432.6019,53.7753 432.5319,54.4473 432.4079,54.4573 C431.7559,54.5113 431.0869,54.4163 430.4329,54.3143 C430.3639,54.3033 430.2589,53.8473 430.3449,53.6993 C430.4589,53.5023 430.7349,53.3053 430.9579,53.2863 C431.4389,53.2423 431.9299,53.3113 432.7129,53.3493" id="Fill-143" fill="#910F1F"></path>
                <path d="M402.1836,53.3493 C402.0726,53.7753 402.0026,54.4473 401.8786,54.4573 C401.2266,54.5113 400.5576,54.4163 399.9036,54.3143 C399.8346,54.3033 399.7296,53.8473 399.8156,53.6993 C399.9296,53.5023 400.2056,53.3053 400.4286,53.2863 C400.9096,53.2423 401.4006,53.3113 402.1836,53.3493" id="Fill-144" fill="#910F1F"></path>
                <path d="M392.2461,53.3493 C392.1351,53.7753 392.0651,54.4473 391.9411,54.4573 C391.2891,54.5113 390.6201,54.4163 389.9661,54.3143 C389.8971,54.3033 389.7921,53.8473 389.8781,53.6993 C389.9921,53.5023 390.2681,53.3053 390.4911,53.2863 C390.9721,53.2423 391.4631,53.3113 392.2461,53.3493" id="Fill-145" fill="#910F1F"></path>
                <path d="M448.0845,54.5446 C448.1085,54.0596 448.1265,53.6966 448.1435,53.3406 C448.7715,53.3116 449.3035,53.2146 449.8075,53.2946 C450.0555,53.3336 450.2505,53.7006 450.4695,53.9196 C450.2505,54.1276 450.0565,54.4696 449.8065,54.5166 C449.3065,54.6106 448.7765,54.5446 448.0845,54.5446" id="Fill-146" fill="#910F1F"></path>
                <path d="M403.5703,89.0666 C403.5703,90.0006 403.6523,90.5886 403.5273,91.1286 C403.4813,91.3246 402.9383,91.4056 402.6233,91.5386 C402.5693,90.9016 402.4523,90.2596 402.5053,89.6316 C402.5193,89.4606 403.0463,89.3326 403.5703,89.0666" id="Fill-147" fill="#910F1F"></path>
                <path d="M403.5518,16.0749 L403.5518,18.5089 C403.1578,18.4379 402.5708,18.4259 402.5498,18.3129 C402.4448,17.7219 402.4158,17.0929 402.5138,16.5039 C402.5418,16.3369 403.0878,16.2559 403.5518,16.0749" id="Fill-148" fill="#910F1F"></path>
                <path d="M402.3174,79.0231 C402.9434,79.2691 403.4954,79.3641 403.5104,79.5141 C403.5744,80.1451 403.4974,80.7951 403.4084,81.4291 C403.4004,81.4841 402.7084,81.5181 402.7024,81.4871 C402.5584,80.7751 402.4644,80.0541 402.3174,79.0231" id="Fill-149" fill="#910F1F"></path>
                <path d="M356.7432,100.9382 C356.7682,100.4682 356.7932,99.9982 356.8232,99.4382 C357.1882,99.4202 357.5062,99.4042 357.9852,99.3802 C357.6612,100.0242 357.4072,100.5292 357.1532,101.0352 C357.0172,101.0032 356.8802,100.9702 356.7432,100.9382" id="Fill-150" fill="#910F1F"></path>
                <path d="M379.2759,54.5495 C379.3169,54.0335 379.3459,53.6695 379.3729,53.3335 L381.5639,53.3335 C381.6729,54.0195 382.0009,54.7905 380.6879,54.4845 C380.3059,54.3945 379.8759,54.5145 379.2759,54.5495" id="Fill-151" fill="#910F1F"></path>
                <path d="M397.604,59.9836 C397.729,59.4746 399.472,55.3876 399.88,54.2686 C400.413,52.8086 400.931,51.3426 401.455,49.8826 C400.566,48.7666 399.77,47.7206 398.916,46.7226 C398.649,46.4106 398.253,46.0856 397.871,46.0166 C396.897,45.8396 395.905,45.6306 394.834,45.8196 C394.701,46.0876 394.481,46.3356 394.433,46.6366 C394.086,48.8486 393.181,50.8886 392.264,52.9466 C391.251,55.2216 390.672,57.7756 389.119,59.7356 C385.89,65.7376 382.921,70.8526 379.402,75.3226 C375.925,80.1246 373.626,81.9036 372.56,83.0406 C371.197,84.4956 369.51,85.4346 367.461,85.5926 C367.169,85.6146 366.883,85.7176 366.51,85.8026 C364.428,86.2056 365.276,87.2196 366.395,87.7766 C366.94,87.8556 367.36,87.9546 367.784,87.9726 C370.127,88.0726 372.406,87.7186 374.629,86.9786 C376.66,86.3016 378.194,85.0836 379.805,83.8676 C380.881,83.0546 382.078,82.3446 383.158,81.4246 C386.33,78.7246 388.602,75.9766 391.054,72.6286 C391.39,72.1706 392.219,70.9706 392.575,70.4866 C392.697,69.3106 397.661,60.0106 397.604,59.9836" id="Fill-152" fill="#DB4637"></path>
                <path d="M392.0415,53.8127 L391.6135,56.8077 C388.7595,61.6607 387.1875,64.2277 386.9075,64.5087 L385.6235,64.5087 C383.9125,63.9407 382.9095,63.5127 382.6285,63.2247 C380.0615,62.6567 378.7785,62.2297 378.7785,61.9417 L378.7785,61.5137 C379.3465,60.3777 380.0615,59.5217 380.9175,58.9467 C380.9175,58.0907 381.1985,57.2357 381.7725,56.3797 C382.8265,55.1287 383.4415,54.1407 384.1215,51.9227 L384.7685,51.2457 C385.6235,51.2457 394.1805,47.8227 394.1805,47.8227 C393.6065,51.5327 392.8975,53.5317 392.0415,53.8127 M402.3105,42.2597 C400.8725,42.0547 399.5905,40.9977 399.4585,40.9617 L396.3205,39.2657 C394.6085,39.5527 393.7535,40.1207 393.7535,40.9767 L393.7535,41.8327 C393.7535,42.4077 394.7485,45.4017 395.0365,45.6837 C394.7485,46.2587 393.0375,46.6857 389.9025,46.9667 C389.9025,46.9667 387.4755,47.8227 386.9075,47.8227 L386.0515,47.8227 L386.0515,46.9667 L388.1905,42.6877 C388.1905,40.9767 388.4715,40.1207 389.0465,40.1207 C389.0465,38.6967 389.3275,37.9817 389.9025,37.9817 C389.9025,37.9817 392.4695,31.2827 392.4695,30.7077 L393.3255,28.5687 L393.3255,28.1407 L393.7535,27.7137 C393.7535,26.8567 394.0335,26.0017 394.6085,25.1457 L394.6085,23.0067 C393.4655,20.1587 390.5745,20.0687 389.0465,18.7287 C388.2735,18.0507 384.1975,15.6317 384.3405,16.1617 C383.1975,16.1617 382.3415,16.5887 381.7725,17.4447 L381.7725,18.3007 C382.9095,20.0117 383.4845,21.5827 383.4845,23.0067 L383.4845,26.0017 L383.0565,28.1407 L383.0565,33.2747 L380.0615,48.2507 L380.0615,49.1057 C378.0625,49.1057 374.9275,49.9617 374.9275,49.9617 C373.4965,49.9617 372.3605,50.2497 371.5045,50.8177 L371.0765,50.8177 C369.9335,50.8177 367.6535,51.2457 367.6535,51.2457 L364.2315,51.6727 L363.8035,51.6727 L360.3805,52.1007 L357.8135,51.6727 L357.3855,51.6727 C356.2425,51.6727 355.5265,52.3887 355.2455,53.8127 L355.2455,54.6687 C356.9575,56.6667 357.3315,58.0797 357.6185,58.0797 L357.6185,58.5077 C357.8995,59.3637 359.3775,60.0897 360.8085,61.5137 L362.5195,61.5137 L365.0865,59.3747 C365.0865,59.0937 368.0815,57.2357 368.0815,57.2357 C369.7935,56.9547 372.3605,55.9517 372.3605,55.9517 L373.2165,55.5237 L374.9275,55.0967 C376.3515,54.8147 378.3505,53.8127 378.3505,53.8127 C378.3505,54.9557 378.2035,55.5237 377.9225,55.5237 L374.9275,61.0857 C374.0715,61.9417 373.6435,62.6567 373.6435,63.2247 C373.6435,64.0817 373.9245,65.0837 374.4995,66.2207 L376.6385,67.0757 C380.6305,68.2187 382.9095,69.0747 383.4845,69.6427 L383.4845,69.8627 C383.5615,69.8737 383.6385,69.8987 383.7135,69.9307 C383.8875,69.9467 384.0625,69.9897 384.2305,70.0627 C385.7385,70.7167 386.8905,72.0187 388.1205,73.0687 C388.1325,73.0787 388.1435,73.0897 388.1545,73.1007 L388.1905,73.0667 C389.9025,75.0647 391.4665,76.4887 392.8975,77.3447 C394.6085,79.6307 396.0325,81.0547 397.1755,81.6227 C397.7445,83.0537 398.4595,83.7627 399.3155,83.7627 C401.0265,83.7627 402.4505,83.0537 403.5935,81.6227 L403.5935,78.6277 C403.5935,78.0597 403.3065,77.2037 402.7385,76.0607 C401.3075,74.9247 400.5995,74.2087 400.5995,73.9217 C398.5995,72.7847 397.6035,72.0697 397.6035,71.7827 L392.0415,68.3597 L392.0415,67.9317 L393.3255,65.7927 C393.8935,65.5117 394.1805,64.9367 394.1805,64.0817 C395.0365,63.5127 395.4645,62.9447 395.4645,62.3697 L395.4645,61.5137 C396.8885,60.0897 398.0315,58.0907 398.8875,55.5237 C400.3115,53.2447 401.0265,51.8197 401.0265,51.2457 C401.5945,50.9647 401.8825,50.5367 401.8825,49.9617 C403.0185,48.8257 403.5935,47.9687 403.5935,47.3947 L403.5935,46.1117 L404.0215,44.8277 L404.0215,44.3997 C404.0215,43.8317 403.4465,43.1157 402.3105,42.2597" id="Fill-153" fill="#DB4637"></path>
                <path d="M430.9766,14.0212 C431.8326,14.0212 435.3666,15.7332 436.5096,16.0142 L438.6056,19.7162 L441.8076,24.2722 L440.8146,24.6032 C437.5346,26.5762 437.5346,26.5762 436.1106,26.8572 C436.1106,26.8572 432.9686,28.8562 430.9766,29.4242 C430.6896,29.9992 429.8336,30.5672 428.4096,31.1352 C427.8346,31.9912 425.9826,33.5622 422.8476,35.8422 L421.9916,36.6982 L421.9916,37.1252 L425.4146,38.4092 C427.9816,39.8402 429.2646,41.1232 429.2646,42.2592 C429.2646,43.1162 429.5466,44.3992 430.1206,46.1112 L430.5486,46.1112 C434.2526,45.5422 436.6796,44.9742 437.8226,44.3992 L442.9566,43.5432 L443.8126,43.5432 L445.5236,44.3992 L445.9516,43.9712 C447.3756,43.9712 449.3976,45.8782 450.5406,48.1572 C450.5406,49.5882 449.8246,50.2972 448.4016,50.2972 L447.5456,51.1522 L443.8126,50.3892 L442.1006,49.9612 C440.9576,50.5362 438.3906,51.1042 434.3996,51.6722 L432.6886,51.6722 C432.4006,52.2472 431.5446,52.6752 430.1206,52.9562 C430.1206,52.9562 429.6926,55.9512 429.6926,56.8072 L429.6926,60.6572 L429.6926,61.9412 L429.2646,64.0812 L429.2646,66.2202 L429.2646,66.6482 L429.2646,67.0752 C428.9776,71.0732 428.6896,73.9212 428.4096,75.6332 L428.4096,76.9162 C428.4096,79.4832 427.4066,83.0532 425.4146,87.6122 C424.9366,88.5272 424.3406,89.3642 423.7036,90.1792 C423.4156,90.1792 421.5636,91.8912 418.1406,95.3142 L416.8576,95.3142 L416.4296,94.4582 L416.4296,94.0302 L416.8576,92.3192 C416.0016,88.6152 415.1456,86.7572 414.2906,86.7572 C414.2906,86.4762 413.5746,85.9012 412.1516,85.0452 C412.1516,84.7652 411.5766,84.1902 410.4396,83.3342 L410.0116,82.4782 L411.2946,82.0512 L413.4346,82.9062 L416.0016,82.9062 C416.2826,82.9062 417.1376,83.3342 417.7126,82.4782 C418.1206,82.0652 418.4326,81.5082 418.5686,80.7672 L418.5686,80.3392 L419.4246,74.7772 C419.4246,74.7772 420.2796,71.6412 420.2796,67.0752 L420.7076,64.0812 L420.7076,61.9412 C420.4206,60.8052 420.7076,58.0902 420.7076,58.0902 L420.7076,57.6632 L420.7076,55.0962 L419.4246,55.0962 C419.1366,55.6712 416.5696,56.5262 411.7236,57.6632 L411.2946,57.6632 L407.0656,60.2842 L406.2096,60.2842 C404.7786,58.2912 404.3026,56.5262 403.1666,55.9512 L401.4546,54.6682 L401.4546,53.8122 L401.8826,53.3842 L403.1666,53.3842 L409.1556,51.6722 L410.4396,51.6722 C411.5766,51.1042 412.7186,50.6772 413.8626,50.3892 C413.8626,50.1082 414.8586,49.9612 416.8576,49.9612 C416.8576,49.6802 417.8536,49.3932 419.8526,49.1052 L420.2796,47.3942 L420.2796,46.9662 C419.4246,43.8312 417.8536,40.8362 415.5736,37.9812 L415.5736,37.5532 L417.7126,35.4142 L418.1406,35.4142 L420.7076,36.6982 C423.5556,31.8512 424.9866,28.5682 424.9866,26.8572 L426.6976,23.8622 L426.2706,23.4342 C424.5586,24.8652 421.1366,26.4292 421.1366,26.4292 C421.1366,26.4292 419.4246,27.8602 416.8576,28.9962 C416.1146,29.8792 415.0836,30.3622 413.8626,31.1352 C412.3966,32.0632 411.5766,33.2742 410.4396,33.2742 C409.5836,32.7072 408.5806,31.2822 407.4446,28.9962 C407.1576,28.9962 406.4416,28.2882 405.3056,26.8572 C405.0176,26.8572 404.5896,26.2892 404.0216,25.1462 L404.0216,24.2902 C404.0216,23.1532 404.5896,22.5782 405.7336,22.5782 L406.1606,23.0062 L407.4446,23.0062 C407.4446,23.2942 411.0076,22.5782 412.1516,22.5782 C412.7186,22.2972 413.7156,22.0102 415.1456,21.7222 L415.5736,21.7222 L418.9966,20.8672 C418.9966,20.5862 419.7046,20.2992 421.1366,20.0112 C421.1366,19.7302 421.9916,19.4432 423.7036,19.1552 C423.7036,18.8752 424.5586,18.7282 426.2706,18.7282 L430.9766,14.0212 Z" id="Fill-154" fill="#DB4637"></path>
                <polygon id="Fill-156" points="17.438 117.657 24.772 181.752 21.439 308.99 0.912 363.314 204.345 566.749 204.347 566.749 409.724 351.942 84.001 28.494"></polygon>
            </g>
        </g>
    </g>
</svg>